<svg width="19" height="20" viewBox="0 0 19 20" fill="none" xmlns="http://www.w3.org/2000/svg">
<path d="M12.5469 15.9125L13.9869 11.5657L16.3343 4.47264L17.6712 3.45898L14.5946 12.6872L13.0294 17.4471L12.5469 15.9125Z" fill="white"/>
<path d="M13.0285 17.4427C12.0991 18.4764 10.5278 19.1459 9.03769 19.4355C7.53166 19.7289 5.97403 19.7126 4.48166 19.3841C2.88913 19.0337 1.3444 18.2877 0.51286 17.0829C-0.462079 15.6699 0.00149169 14.0695 1.49235 13.0659C2.1107 12.6502 2.80264 12.3619 3.57728 12.192C5.56737 11.7538 7.62953 12.0716 9.37835 12.9543C10.7584 13.6595 11.8214 14.6707 12.5475 15.9081L13.0293 17.4427H13.0285Z" fill="white"/>
<path d="M16.3253 4.50034C15.2183 5.01752 14.0674 5.02002 12.8929 4.77679C11.7935 4.51789 10.9544 4.13926 9.80496 3.99571C8.06221 3.77818 6.31718 4.32168 5.47122 5.65066C4.95985 4.53733 5.06304 3.31868 6.17151 2.4981C7.27315 1.68254 8.7496 1.43805 10.201 1.46062C10.7116 1.46877 11.1942 1.51265 11.7017 1.55152L13.3967 1.68316C14.0507 1.69633 14.6721 1.65056 15.2874 1.47253C16.0567 1.23871 16.669 0.816819 17.1629 0.263914L18.8245 0L17.6621 3.48794L16.3253 4.5016V4.50034Z" fill="white"/>
<path d="M12.361 14.9749C12.3359 14.6045 12.342 14.2835 12.2525 13.935C11.999 12.9445 11.2487 12.29 10.2077 11.8011C9.67664 11.5516 9.1372 11.3547 8.56058 11.1811L6.34137 10.5116C5.61604 10.2928 4.94155 10.032 4.28982 9.69602C3.83308 9.46031 3.43628 9.19828 3.08803 8.85976C2.10019 7.9019 2.07743 6.66382 2.66315 5.5367C3.15783 4.58573 4.12291 3.64604 5.09405 2.95898C4.42942 4.13814 4.5144 5.43389 5.54776 6.40993C6.41041 7.24117 7.61827 7.75333 8.81324 8.19152C10.009 8.6297 11.2282 9.04971 12.1682 9.80823C13.804 11.1291 13.2244 12.8881 12.5757 14.4596L12.361 14.9743V14.9749Z" fill="white"/>
</svg>
