<svg width="162" height="160" viewBox="0 0 162 160" fill="none" xmlns="http://www.w3.org/2000/svg">
<rect x="162" y="160" width="162" height="160" rx="45" transform="rotate(180 162 160)" fill="url(#paint0_linear_48_186)"/>
<path d="M99.484 115.196L107.918 89.738L121.666 48.1957L129.495 42.259L111.477 96.3062L102.31 124.183L99.484 115.196Z" fill="white"/>
<path d="M102.304 124.158C96.8604 130.212 87.6579 134.133 78.9308 135.829C70.1105 137.547 60.988 137.452 52.2476 135.528C42.9207 133.476 33.8737 129.107 29.0037 122.05C23.2938 113.775 26.0087 104.402 34.7402 98.5237C38.3617 96.0895 42.4141 94.4006 46.951 93.4057C58.6063 90.8394 70.6837 92.7008 80.926 97.8702C89.0087 102.001 95.2341 107.923 99.4865 115.17L102.308 124.158H102.304Z" fill="white"/>
<path d="M121.613 48.3572C115.13 51.3862 108.389 51.4009 101.51 49.9763C95.0716 48.46 90.1571 46.2425 83.4252 45.4017C73.2185 44.1277 62.9984 47.3109 58.0439 55.0943C55.049 48.5738 55.6533 41.4366 62.1452 36.6307C68.5972 31.8541 77.2443 30.4223 85.7447 30.5544C88.7352 30.6022 91.5613 30.8592 94.534 31.0868L104.461 31.8578C108.291 31.9349 111.93 31.6669 115.534 30.6242C120.04 29.2548 123.626 26.7839 126.518 23.5457L136.25 22L129.442 42.4279L121.613 48.3646V48.3572Z" fill="white"/>
<path d="M98.3965 109.703C98.2499 107.534 98.2854 105.654 97.7611 103.612C96.277 97.8116 91.8823 93.9786 85.7858 91.1149C82.6754 89.6537 79.5161 88.5008 76.139 87.4839L63.1417 83.5628C58.8938 82.2814 54.9435 80.7541 51.1265 78.7862C48.4515 77.4058 46.1276 75.8711 44.088 73.8885C38.3026 68.2786 38.1693 61.0275 41.5996 54.4263C44.4968 48.8567 50.1489 43.3532 55.8366 39.3293C51.9441 46.2353 52.4418 53.8242 58.4938 59.5406C63.5461 64.4089 70.6202 67.4085 77.6187 69.9748C84.6216 72.5411 91.7624 75.001 97.2679 79.4434C106.848 87.1791 103.453 97.4812 99.654 106.685L98.3965 109.7V109.703Z" fill="white"/>
<defs>
<linearGradient id="paint0_linear_48_186" x1="243" y1="160" x2="243" y2="320" gradientUnits="userSpaceOnUse">
<stop stop-color="#33267D"/>
<stop offset="0.485577" stop-color="#721F81"/>
<stop offset="1" stop-color="#AE1D86"/>
</linearGradient>
</defs>
</svg>
