<svg width="43" height="53" viewBox="0 0 43 53" fill="none" xmlns="http://www.w3.org/2000/svg">
<path d="M24.2096 31.1752L25.6496 26.8284L27.9971 19.7353L29.3339 18.7217L26.2574 27.9499L24.6921 32.7098L24.2096 31.1752Z" fill="#231F20"/>
<path d="M24.6906 32.7054C23.7612 33.7391 22.1899 34.4086 20.6998 34.6982C19.1938 34.9916 17.6362 34.9753 16.1438 34.6468C14.5513 34.2964 13.0066 33.5504 12.175 32.3456C11.2001 30.9326 11.6636 29.3322 13.1545 28.3286C13.7729 27.9129 14.4648 27.6246 15.2394 27.4547C17.2295 27.0165 19.2917 27.3343 21.0405 28.217C22.4206 28.9222 23.4835 29.9334 24.2096 31.1708L24.6914 32.7054H24.6906Z" fill="#231F20"/>
<path d="M27.9903 19.763C26.8833 20.2802 25.7324 20.2827 24.5579 20.0395C23.4585 19.7806 22.6194 19.402 21.4699 19.2584C19.7272 19.0409 17.9822 19.5844 17.1362 20.9134C16.6248 19.8 16.728 18.5814 17.8365 17.7608C18.9381 16.9452 20.4146 16.7007 21.866 16.7233C22.3766 16.7315 22.8591 16.7753 23.3667 16.8142L25.0617 16.9459C25.7157 16.959 26.337 16.9133 26.9524 16.7352C27.7217 16.5014 28.334 16.0795 28.8279 15.5266L30.4894 15.2627L29.3271 18.7506L27.9903 19.7643V19.763Z" fill="#231F20"/>
<path d="M24.0237 30.2376C23.9986 29.8671 24.0047 29.5462 23.9152 29.1976C23.6618 28.2072 22.9114 27.5527 21.8705 27.0638C21.3394 26.8143 20.7999 26.6174 20.2233 26.4438L18.0041 25.7743C17.2788 25.5555 16.6043 25.2947 15.9526 24.9587C15.4958 24.723 15.099 24.461 14.7508 24.1225C13.7629 23.1646 13.7402 21.9265 14.3259 20.7994C14.8206 19.8484 15.7856 18.9087 16.7568 18.2217C16.0922 19.4008 16.1771 20.6966 17.2105 21.6726C18.0731 22.5039 19.281 23.016 20.476 23.4542C21.6717 23.8924 22.8909 24.3124 23.831 25.0709C25.4667 26.3917 24.8871 28.1508 24.2384 29.7223L24.0237 30.237V30.2376Z" fill="#231F20"/>
</svg>
