<svg width="111" height="116" viewBox="0 0 111 116" fill="none" xmlns="http://www.w3.org/2000/svg">
<path d="M73.484 93.1958L81.9178 67.738L95.666 26.1957L103.495 20.259L85.477 74.3062L76.3101 102.183L73.484 93.1958Z" fill="white"/>
<path d="M76.3037 102.158C70.8604 108.212 61.6579 112.133 52.9308 113.829C44.1105 115.547 34.988 115.452 26.2476 113.528C16.9207 111.476 7.87373 107.107 3.00366 100.05C-2.70625 91.7748 0.00873635 82.4016 8.74022 76.5237C12.3617 74.0895 16.4141 72.4006 20.951 71.4057C32.6063 68.8394 44.6837 70.7008 54.926 75.8702C63.0087 80.0005 69.2341 85.9225 73.4865 93.17L76.3081 102.158H76.3037Z" fill="white"/>
<path d="M95.6127 26.3572C89.1296 29.3862 82.3888 29.4009 75.5103 27.9763C69.0716 26.46 64.1571 24.2425 57.4252 23.4017C47.2185 22.1277 36.9984 25.3109 32.0439 33.0943C29.049 26.5738 29.6533 19.4366 36.1452 14.6307C42.5972 9.85413 51.2443 8.42227 59.7447 8.55444C62.7352 8.60217 65.5613 8.85917 68.534 9.0868L78.4607 9.8578C82.291 9.9349 85.9303 9.66688 89.534 8.6242C94.0397 7.25475 97.6256 4.78388 100.518 1.54567L110.25 0L103.442 20.4279L95.6127 26.3646V26.3572Z" fill="white"/>
<path d="M72.3965 87.7034C72.2499 85.5336 72.2854 83.6538 71.7611 81.6125C70.277 75.8116 65.8823 71.9786 59.7858 69.1149C56.6754 67.6537 53.5161 66.5008 50.139 65.4839L37.1417 61.5628C32.8938 60.2814 28.9435 58.7541 25.1265 56.7862C22.4515 55.4058 20.1276 53.8711 18.088 51.8885C12.3026 46.2786 12.1693 39.0275 15.5996 32.4263C18.4968 26.8567 24.1489 21.3532 29.8366 17.3293C25.9441 24.2353 26.4418 31.8242 32.4938 37.5406C37.5461 42.4089 44.6202 45.4085 51.6187 47.9748C58.6216 50.5411 65.7624 53.001 71.2679 57.4434C80.8481 65.1791 77.4532 75.4812 73.654 84.6855L72.3965 87.6997V87.7034Z" fill="white"/>
</svg>
